<svg xmlns="http://www.w3.org/2000/svg" width="75" viewBox="0 0 75 75" height="75" version="1.0"><path d="M 11.515625 57.925781 L 9.109375 58.203125 L 10.246094 68.019531 C 10.386719 69.238281 11.421875 70.160156 12.648438 70.160156 L 15.757812 70.160156 L 15.757812 67.742188 L 12.648438 67.742188 L 11.515625 57.925781"/><path d="M 10.976562 53.261719 L 8.578125 53.542969 L 8.832031 55.78125 L 11.238281 55.507812 L 10.976562 53.261719"/><path d="M 19.355469 58.066406 C 19.355469 57.675781 19.398438 57.292969 19.457031 56.917969 L 20.128906 58.277344 L 22.296875 57.203125 L 20.007812 52.574219 L 14.851562 52.90625 L 15.007812 55.320312 L 17.398438 55.164062 C 17.105469 56.097656 16.933594 57.070312 16.933594 58.066406 C 16.933594 61.234375 18.488281 64.207031 21.097656 66.015625 L 22.476562 64.03125 C 20.523438 62.671875 19.355469 60.441406 19.355469 58.066406"/><path d="M 29.199219 64.839844 L 30.039062 63.574219 L 28.027344 62.230469 L 25.15625 66.53125 L 28.027344 70.832031 L 30.039062 69.492188 L 28.714844 67.503906 C 33.042969 66.542969 36.289062 62.675781 36.289062 58.066406 L 33.871094 58.066406 C 33.871094 61.15625 31.925781 63.796875 29.199219 64.839844"/><path d="M 33.730469 51.539062 C 31.917969 49.570312 29.34375 48.386719 26.613281 48.386719 C 25.1875 48.386719 23.8125 48.691406 22.53125 49.289062 L 23.550781 51.480469 C 24.515625 51.035156 25.539062 50.804688 26.613281 50.804688 C 28.300781 50.804688 29.902344 51.40625 31.175781 52.441406 L 29.671875 52.34375 L 29.515625 54.757812 L 34.675781 55.085938 L 36.960938 50.457031 L 34.796875 49.382812 L 33.730469 51.539062"/><path d="M 65.324219 58.066406 C 67.324219 58.066406 68.953125 59.691406 68.953125 61.695312 C 68.953125 61.746094 68.941406 61.796875 68.933594 61.847656 L 68.824219 62.945312 L 69.636719 63.289062 C 71.421875 64.050781 72.582031 65.800781 72.582031 67.742188 C 72.582031 70.410156 70.410156 72.582031 67.742188 72.582031 C 65.070312 72.582031 62.902344 70.410156 62.902344 67.742188 L 60.484375 67.742188 C 60.484375 68.199219 60.53125 68.648438 60.613281 69.082031 C 59.9375 69.757812 59.042969 70.160156 58.066406 70.160156 C 56.0625 70.160156 54.433594 68.535156 54.433594 66.53125 C 54.433594 64.527344 56.0625 62.902344 58.066406 62.902344 C 61.207031 62.902344 63.875 60.894531 64.886719 58.097656 C 65.035156 58.078125 65.175781 58.066406 65.324219 58.066406 Z M 53.226562 55.644531 L 50.804688 55.644531 C 50.804688 56.101562 50.855469 56.550781 50.933594 56.988281 C 50.257812 57.664062 49.363281 58.066406 48.386719 58.066406 C 46.382812 58.066406 44.757812 56.4375 44.757812 54.433594 C 44.757812 52.433594 46.382812 50.804688 48.386719 50.804688 L 48.386719 48.386719 C 47.296875 48.386719 46.285156 48.703125 45.394531 49.210938 C 44.988281 48.613281 44.757812 47.910156 44.757812 47.175781 C 44.757812 45.175781 46.382812 43.546875 48.386719 43.546875 C 49.914062 43.546875 51.285156 44.527344 51.792969 45.988281 L 52.3125 47.46875 L 53.613281 46.589844 C 54.214844 46.179688 54.917969 45.96875 55.644531 45.96875 C 57.648438 45.96875 59.273438 47.59375 59.273438 49.597656 C 59.273438 49.648438 59.265625 49.699219 59.253906 49.753906 L 59.148438 50.847656 L 59.960938 51.195312 C 61.746094 51.953125 62.902344 53.703125 62.902344 55.644531 C 62.902344 58.316406 60.734375 60.484375 58.066406 60.484375 C 55.394531 60.484375 53.226562 58.316406 53.226562 55.644531 Z M 45.257812 69.367188 C 45.046875 71.199219 43.5 72.582031 41.652344 72.582031 L 11.574219 72.582031 C 9.730469 72.582031 8.179688 71.199219 7.96875 69.367188 L 4.984375 43.546875 L 43.582031 43.546875 C 42.8125 44.5625 42.339844 45.8125 42.339844 47.175781 C 42.339844 48.503906 42.777344 49.78125 43.566406 50.824219 C 42.804688 51.832031 42.339844 53.074219 42.339844 54.433594 C 42.339844 57.042969 44.011719 59.25 46.328125 60.101562 Z M 4.207031 27.75 L 27.75 4.199219 C 28.898438 3.050781 30.429688 2.417969 32.054688 2.417969 C 33.40625 2.417969 34.691406 2.859375 35.75 3.667969 L 3.667969 35.75 C 2.859375 34.691406 2.417969 33.40625 2.417969 32.054688 C 2.417969 30.429688 3.050781 28.898438 4.207031 27.75 Z M 4.558594 19.78125 C 3.960938 19.183594 3.628906 18.386719 3.628906 17.539062 C 3.628906 16.695312 3.960938 15.894531 4.558594 15.300781 L 15.300781 4.558594 C 16.488281 3.367188 18.589844 3.367188 19.78125 4.558594 L 21.878906 6.652344 L 6.652344 21.878906 Z M 45.96875 9.675781 L 45.96875 36.289062 L 38.710938 36.289062 L 38.710938 21.773438 L 21.066406 21.773438 L 33.164062 9.675781 Z M 12.097656 36.289062 L 6.550781 36.289062 L 12.097656 30.742188 Z M 18.644531 24.195312 L 36.289062 24.195312 L 36.289062 36.289062 L 14.515625 36.289062 L 14.515625 28.324219 Z M 4.839844 41.128906 L 4.839844 38.710938 L 48.386719 38.710938 L 48.386719 41.128906 Z M 61.695312 39.917969 C 62.421875 39.917969 63.125 40.132812 63.726562 40.542969 L 65.023438 41.421875 L 65.542969 39.9375 C 66.054688 38.476562 67.425781 37.5 68.953125 37.5 C 70.957031 37.5 72.582031 39.125 72.582031 41.128906 C 72.582031 41.863281 72.347656 42.566406 71.941406 43.160156 C 71.054688 42.65625 70.042969 42.339844 68.953125 42.339844 L 68.953125 44.757812 C 70.957031 44.757812 72.582031 46.382812 72.582031 48.386719 C 72.582031 50.390625 70.957031 52.015625 68.953125 52.015625 C 67.976562 52.015625 67.085938 51.621094 66.40625 50.945312 C 66.488281 50.503906 66.53125 50.050781 66.53125 49.597656 L 64.113281 49.597656 C 64.113281 50.160156 64.003906 50.703125 63.820312 51.222656 C 63.25 50.476562 62.523438 49.835938 61.6875 49.355469 C 61.59375 47.007812 60.152344 45.011719 58.121094 44.097656 L 58.082031 43.703125 C 58.074219 43.652344 58.066406 43.601562 58.066406 43.546875 C 58.066406 41.542969 59.691406 39.917969 61.695312 39.917969 Z M 68.953125 54.433594 C 72.289062 54.433594 75 51.722656 75 48.386719 C 75 47.027344 74.53125 45.785156 73.769531 44.777344 C 74.558594 43.734375 75 42.457031 75 41.128906 C 75 37.792969 72.289062 35.082031 68.953125 35.082031 C 66.863281 35.082031 64.949219 36.171875 63.859375 37.902344 C 63.171875 37.636719 62.441406 37.5 61.695312 37.5 C 58.4375 37.5 55.773438 40.085938 55.648438 43.308594 C 55.503906 43.390625 55.371094 43.492188 55.230469 43.585938 C 54.628906 43.628906 54.035156 43.734375 53.480469 43.949219 C 52.832031 42.925781 51.894531 42.136719 50.804688 41.648438 L 50.804688 36.289062 L 48.386719 36.289062 L 48.386719 7.257812 L 35.582031 7.257812 L 39.210938 3.628906 L 38.070312 2.488281 C 36.464844 0.882812 34.328125 0 32.054688 0 C 29.785156 0 27.648438 0.882812 26.042969 2.488281 L 23.589844 4.941406 L 21.496094 2.84375 C 20.4375 1.789062 19.035156 1.210938 17.539062 1.210938 C 16.066406 1.210938 14.628906 1.804688 13.585938 2.84375 L 2.847656 13.585938 C 1.789062 14.644531 1.210938 16.046875 1.210938 17.539062 C 1.210938 19.035156 1.789062 20.4375 2.847656 21.496094 L 4.941406 23.589844 L 2.496094 26.042969 C 0.882812 27.648438 0 29.785156 0 32.054688 C 0 34.292969 0.859375 36.394531 2.417969 37.992188 L 2.417969 42.339844 L 5.5625 69.644531 C 5.910156 72.699219 8.496094 75 11.574219 75 L 41.652344 75 C 44.730469 75 47.308594 72.699219 47.664062 69.644531 L 48.722656 60.464844 C 49.851562 60.398438 50.933594 60.019531 51.851562 59.378906 C 52.457031 60.382812 53.296875 61.226562 54.296875 61.835938 C 52.917969 62.945312 52.015625 64.628906 52.015625 66.53125 C 52.015625 69.867188 54.726562 72.582031 58.066406 72.582031 C 59.3125 72.582031 60.523438 72.179688 61.527344 71.476562 C 62.800781 73.582031 65.105469 75 67.742188 75 C 71.746094 75 75 71.746094 75 67.742188 C 75 65.121094 73.601562 62.738281 71.367188 61.453125 C 71.238281 58.230469 68.578125 55.644531 65.324219 55.644531 C 65.324219 55.039062 65.238281 54.449219 65.097656 53.878906 C 65.226562 53.699219 65.371094 53.523438 65.488281 53.328125 C 66.496094 54.035156 67.703125 54.433594 68.953125 54.433594"/><path d="M 43.546875 12.097656 L 33.871094 12.097656 L 33.871094 14.515625 L 43.546875 14.515625 L 43.546875 12.097656"/><path d="M 43.546875 19.355469 L 43.546875 16.933594 L 29.03125 16.933594 L 29.03125 19.355469 L 43.546875 19.355469"/><path d="M 33.871094 26.613281 L 16.933594 26.613281 L 16.933594 29.03125 L 33.871094 29.03125 L 33.871094 26.613281"/><path d="M 33.871094 33.871094 L 33.871094 31.453125 L 16.933594 31.453125 L 16.933594 33.871094 L 33.871094 33.871094"/></svg>