<svg xmlns="http://www.w3.org/2000/svg" width="75" viewBox="0 0 75 75" height="75" version="1.0"><defs><clipPath id="a"><path d="M 0.273438 10 L 13 10 L 13 73 L 0.273438 73 Z M 0.273438 10"/></clipPath><clipPath id="b"><path d="M 7 0 L 74.523438 0 L 74.523438 75 L 7 75 Z M 7 0"/></clipPath></defs><path d="M 49.773438 25.246094 L 67.097656 25.246094 L 67.097656 42.617188 L 49.773438 42.617188 Z M 49.773438 25.246094"/><g clip-path="url(#a)"><path d="M 6.460938 72.398438 C 9.871094 72.398438 12.648438 68.992188 12.648438 65.574219 L 12.648438 10.355469 L 6.460938 10.355469 C 3.046875 10.355469 0.273438 12.519531 0.273438 15.941406 L 0.273438 65.574219 C 0.273438 67.964844 0.273438 72.398438 2.6875 72.398438 Z M 6.460938 72.398438"/></g><g clip-path="url(#b)"><path d="M 68.335938 0.429688 L 21.929688 0.429688 C 18.515625 0.429688 15.121094 3.214844 15.121094 6.632812 L 15.121094 65.574219 C 15.121094 70.175781 12.078125 73.984375 7.699219 74.726562 C 8.207031 74.8125 9.023438 74.878906 9.554688 74.878906 L 68.335938 74.878906 C 71.746094 74.878906 74.523438 72.09375 74.523438 68.675781 L 74.523438 6.632812 C 74.523438 3.214844 71.746094 0.429688 68.335938 0.429688 Z M 49.773438 12.839844 L 65.242188 12.839844 C 66.097656 12.839844 66.789062 13.226562 66.789062 14.078125 C 66.789062 14.9375 66.097656 15.320312 65.242188 15.320312 L 49.773438 15.320312 C 48.917969 15.320312 48.226562 14.9375 48.226562 14.078125 C 48.226562 13.226562 48.917969 12.839844 49.773438 12.839844 Z M 40.492188 62.472656 L 25.023438 62.472656 C 24.167969 62.472656 23.476562 62.089844 23.476562 61.230469 C 23.476562 60.378906 24.167969 59.988281 25.023438 59.988281 L 40.492188 59.988281 C 41.347656 59.988281 42.039062 60.378906 42.039062 61.230469 C 42.039062 62.089844 41.347656 62.472656 40.492188 62.472656 Z M 40.492188 55.027344 L 25.023438 55.027344 C 24.167969 55.027344 23.476562 54.644531 23.476562 53.785156 C 23.476562 52.933594 24.167969 52.546875 25.023438 52.546875 L 40.492188 52.546875 C 41.347656 52.546875 42.039062 52.933594 42.039062 53.785156 C 42.039062 54.644531 41.347656 55.027344 40.492188 55.027344 Z M 40.492188 35.171875 L 25.023438 35.171875 C 24.167969 35.171875 23.476562 34.792969 23.476562 33.933594 C 23.476562 33.078125 24.167969 32.691406 25.023438 32.691406 L 40.492188 32.691406 C 41.347656 32.691406 42.039062 33.078125 42.039062 33.933594 C 42.039062 34.792969 41.347656 35.171875 40.492188 35.171875 Z M 40.492188 45.101562 L 25.023438 45.101562 C 24.167969 45.101562 23.476562 44.71875 23.476562 43.859375 C 23.476562 43.003906 24.167969 42.617188 25.023438 42.617188 L 40.492188 42.617188 C 41.347656 42.617188 42.039062 43.003906 42.039062 43.859375 C 42.039062 44.71875 41.347656 45.101562 40.492188 45.101562 Z M 40.492188 25.246094 L 25.023438 25.246094 C 24.167969 25.246094 23.476562 24.863281 23.476562 24.007812 C 23.476562 23.152344 24.167969 22.765625 25.023438 22.765625 L 40.492188 22.765625 C 41.347656 22.765625 42.039062 23.152344 42.039062 24.007812 C 42.039062 24.863281 41.347656 25.246094 40.492188 25.246094 Z M 40.492188 15.320312 L 25.023438 15.320312 C 24.167969 15.320312 23.476562 14.9375 23.476562 14.078125 C 23.476562 13.226562 24.167969 12.839844 25.023438 12.839844 L 40.492188 12.839844 C 41.347656 12.839844 42.039062 13.226562 42.039062 14.078125 C 42.039062 14.9375 41.347656 15.320312 40.492188 15.320312 Z M 65.242188 62.472656 L 49.773438 62.472656 C 48.917969 62.472656 48.226562 62.089844 48.226562 61.230469 C 48.226562 60.378906 48.917969 59.988281 49.773438 59.988281 L 65.242188 59.988281 C 66.097656 59.988281 66.789062 60.378906 66.789062 61.230469 C 66.789062 62.089844 66.097656 62.472656 65.242188 62.472656 Z M 65.242188 55.027344 L 49.773438 55.027344 C 48.917969 55.027344 48.226562 54.644531 48.226562 53.785156 C 48.226562 52.933594 48.917969 52.546875 49.773438 52.546875 L 65.242188 52.546875 C 66.097656 52.546875 66.789062 52.933594 66.789062 53.785156 C 66.789062 54.644531 66.097656 55.027344 65.242188 55.027344 Z M 69.574219 43.550781 C 69.574219 44.40625 68.882812 45.101562 68.027344 45.101562 L 48.84375 45.101562 C 47.988281 45.101562 47.296875 44.40625 47.296875 43.550781 L 47.296875 24.316406 C 47.296875 23.457031 47.988281 22.765625 48.84375 22.765625 L 68.027344 22.765625 C 68.882812 22.765625 69.574219 23.457031 69.574219 24.316406 Z M 69.574219 43.550781"/></g></svg>