<?xml version="1.0" encoding="utf-8"?>
<!-- Generator: Adobe Illustrator 25.4.1, SVG Export Plug-In . SVG Version: 6.00 Build 0)  -->
<svg version="1.1" id="Layer_1" focusable="false" xmlns="http://www.w3.org/2000/svg" xmlns:xlink="http://www.w3.org/1999/xlink"
	 x="0px" y="0px" viewBox="0 0 576 512" style="enable-background:new 0 0 576 512;" xml:space="preserve">
<style type="text/css">
	.st0{fill:#FFFFFF;}
</style>
<path class="st0" d="M159.9,175.8h64v64c0,8.8,7.2,16,16,16h64c8.8,0,16-7.2,16-16v-64h64c8.8,0,16-7.2,16-16v-64
	c0-8.8-7.2-16-16-16h-64v-64c0-8.8-7.2-16-16-16h-64c-8.8,0-16,7.2-16,16v64h-64c-8.8,0-16,7.2-16,16v64
	C143.9,168.7,151,175.8,159.9,175.8z M568.1,336.1c-13-17.8-38-21.6-55.8-8.6l-0.1,0.1l-119.7,88.2H271.9c-8.8,0-16-7.2-16-16
	s7.2-16,16-16h78.2c16,0,30.8-10.9,33.4-26.6c2.9-17.5-8.8-34-26.3-36.9c-1.8-0.3-3.5-0.4-5.3-0.4h-160c-27,0-53.2,9.3-74.1,26.2
	l-46.5,37.7H15.9c-8.8,0.1-15.9,7.2-16,16v96c0.1,8.8,7.2,15.9,16,16h347c22.2-0.1,43.8-7.2,61.7-20.3l135-99.6
	C577.3,378.9,581.1,353.9,568.1,336.1z"/>
</svg>
