<svg xmlns="http://www.w3.org/2000/svg" width="75" viewBox="0 0 75 75" height="75" version="1.0"><defs><clipPath id="a"><path d="M 43 19 L 75 19 L 75 72 L 43 72 Z M 43 19"/></clipPath><clipPath id="b"><path d="M 0 19 L 32 19 L 32 72 L 0 72 Z M 0 19"/></clipPath><clipPath id="c"><path d="M 12 3 L 63 3 L 63 35 L 12 35 Z M 12 3"/></clipPath></defs><g clip-path="url(#a)"><path d="M 71.070312 19.339844 C 68.90625 19.339844 67.148438 21.09375 67.148438 23.25 L 67.148438 38.441406 C 69.21875 39.390625 70.472656 41.308594 70.472656 43.398438 C 70.472656 44.785156 69.917969 46.109375 68.90625 47.132812 L 60.867188 55.976562 C 60.496094 56.441406 60 57.164062 59.75 57.96875 C 59.613281 58.398438 59.570312 58.859375 59.558594 59.4375 L 57.011719 59.4375 C 57.023438 58.628906 57.089844 57.921875 57.324219 57.199219 C 57.757812 55.804688 58.625 54.667969 59.136719 54.066406 L 67.054688 45.558594 C 67.535156 44.992188 67.796875 44.269531 67.796875 43.53125 C 67.796875 41.808594 66.398438 40.410156 64.683594 40.410156 C 63.871094 40.410156 63.101562 40.71875 62.519531 41.285156 L 46.101562 57.816406 C 43.261719 60.796875 43.449219 63.832031 43.449219 66.105469 L 43.464844 72.074219 L 57.546875 72.074219 L 57.546875 69.566406 C 57.546875 67.9375 57.863281 66.863281 59.144531 65.652344 L 72.082031 51.878906 C 73.933594 49.707031 74.96875 46.929688 74.96875 44.050781 L 74.96875 23.25 C 74.96875 21.09375 73.222656 19.339844 71.070312 19.339844 Z M 71.070312 19.339844"/></g><g clip-path="url(#b)"><path d="M 12.453125 41.285156 C 11.867188 40.722656 11.097656 40.414062 10.289062 40.414062 C 8.570312 40.414062 7.171875 41.8125 7.171875 43.53125 C 7.171875 44.273438 7.433594 44.996094 7.914062 45.5625 L 15.832031 54.066406 C 16.34375 54.671875 17.214844 55.804688 17.644531 57.199219 C 17.878906 57.921875 17.945312 58.628906 17.957031 59.4375 L 15.410156 59.4375 C 15.398438 58.859375 15.355469 58.398438 15.21875 57.96875 C 14.972656 57.164062 14.472656 56.441406 14.101562 55.980469 L 6.0625 47.132812 C 5.046875 46.109375 4.496094 44.785156 4.496094 43.398438 C 4.496094 41.308594 5.746094 39.390625 7.820312 38.441406 L 7.820312 23.25 C 7.820312 21.09375 6.058594 19.339844 3.898438 19.339844 C 1.742188 19.339844 0 21.09375 0 23.25 L 0 44.050781 C 0 46.929688 1.03125 49.707031 2.882812 51.878906 L 15.824219 65.652344 C 17.105469 66.867188 17.421875 67.941406 17.421875 69.566406 L 17.421875 72.074219 L 31.503906 72.074219 L 31.519531 66.105469 C 31.519531 63.832031 31.707031 60.796875 28.867188 57.816406 Z M 12.453125 41.285156"/></g><g clip-path="url(#c)"><path d="M 62.496094 3.027344 L 57.113281 3.027344 L 57.113281 0.949219 C 57.113281 -0.589844 56.535156 -2.023438 55.855469 -3.375 C 55.472656 -4.128906 55.046875 -4.859375 54.675781 -5.621094 C 54.410156 -6.164062 54.15625 -6.742188 54.050781 -7.347656 C 54.40625 -7.570312 54.53125 -8.054688 54.460938 -8.472656 C 54.378906 -8.949219 53.925781 -9.203125 53.480469 -9.203125 L 50.1875 -9.203125 C 49.746094 -9.203125 49.328125 -9.011719 49.191406 -8.542969 C 49.066406 -8.113281 49.207031 -7.585938 49.582031 -7.347656 C 49.410156 -6.292969 48.804688 -5.304688 48.3125 -4.382812 C 47.660156 -3.171875 47.011719 -1.9375 46.695312 -0.589844 C 46.4375 0.523438 46.519531 1.71875 46.519531 2.859375 L 46.519531 3.03125 L 42.5 3.03125 C 41.398438 1.867188 40.167969 0.796875 38.933594 0.0859375 C 38.65625 -0.078125 38.570312 -0.3125 38.605469 -0.539062 C 38.6875 -1 39.261719 -1.425781 39.816406 -1.105469 C 41.261719 -0.269531 42.652344 0.679688 43.875 1.78125 C 43.875 1.78125 44.019531 0.753906 43.832031 -0.265625 C 43.628906 -1.355469 43.144531 -2.152344 43.144531 -2.152344 C 41.6875 -4.140625 39.601562 -6.363281 37.507812 -7.566406 C 36.675781 -8.046875 37.5625 -9.238281 38.394531 -8.757812 C 39.835938 -7.925781 41.222656 -6.976562 42.445312 -5.878906 C 40.664062 -14.796875 37.261719 -19.121094 32.957031 -18.597656 C 30.925781 -18.351562 28.617188 -16.882812 29.761719 -10.753906 L 31.957031 1.050781 C 30.480469 -0.941406 28.121094 -2.238281 25.453125 -2.238281 C 21.984375 -2.238281 19.027344 -0.046875 17.875 3.027344 L 12.476562 3.027344 L 12.476562 34.375 L 62.496094 34.375 Z M 57.492188 29.359375 L 17.476562 29.359375 L 17.476562 8.046875 L 57.492188 8.046875 Z M 57.492188 29.359375"/></g></svg>