<svg xmlns="http://www.w3.org/2000/svg" width="75" viewBox="0 0 75 75" height="75" version="1.0"><defs><clipPath id="a"><path d="M 0 5.183594 L 75 5.183594 L 75 69.683594 L 0 69.683594 Z M 0 5.183594"/></clipPath></defs><g clip-path="url(#a)"><path d="M 42.769531 14.441406 C 40.996094 14.273438 39.207031 14 37.433594 13.964844 C 32.792969 13.847656 28.253906 14.730469 23.683594 15.429688 C 22.046875 15.683594 21.261719 16.398438 20.527344 17.8125 C 18.003906 22.648438 15.257812 27.363281 12.597656 32.113281 C 12.425781 32.4375 12.203125 32.84375 12.253906 33.167969 C 12.511719 34.664062 12.871094 36.128906 13.210938 37.746094 C 13.65625 37.40625 13.996094 37.152344 14.335938 36.914062 C 16.246094 35.5 18.617188 35.789062 19.8125 37.59375 C 20.683594 38.886719 20.578125 40.351562 19.523438 41.492188 C 17.320312 43.875 15.105469 46.257812 12.871094 48.625 C 11.796875 49.765625 9.96875 49.96875 8.570312 49.152344 C 7.257812 48.386719 6.644531 46.871094 7.121094 45.320312 C 7.328125 44.65625 7.667969 44.011719 8.09375 43.449219 C 8.878906 42.410156 9.78125 41.457031 10.601562 40.4375 C 10.804688 40.179688 10.960938 39.738281 10.90625 39.433594 C 10.703125 38.308594 10.414062 37.203125 10.125 36.09375 C 10.074219 35.890625 9.867188 35.636719 9.664062 35.550781 C 8.894531 35.246094 8.042969 35.074219 7.328125 34.683594 C 5.792969 33.847656 4.324219 32.894531 2.824219 31.992188 C 2.398438 31.738281 1.96875 31.515625 1.511719 31.328125 C 0.351562 30.851562 0.0429688 30.339844 0.503906 29.183594 C 1.03125 27.875 1.628906 26.578125 2.261719 25.320312 C 4.800781 20.214844 7.617188 15.257812 10.789062 10.511719 C 11.316406 9.726562 11.929688 8.976562 12.597656 8.28125 C 13.65625 7.15625 14.542969 7.039062 15.769531 7.992188 C 17.425781 9.265625 19.027344 10.644531 20.5625 12.074219 C 21.3125 12.773438 21.945312 13.097656 23.070312 12.875 C 27.539062 11.972656 32.058594 11.242188 36.628906 11.226562 C 40.46875 11.207031 44.273438 11.617188 47.648438 13.777344 C 48.484375 14.324219 49.335938 13.964844 49.933594 13.199219 C 51.792969 10.816406 53.671875 8.433594 55.632812 6.117188 C 56.417969 5.183594 57.097656 5.214844 58.035156 6.015625 C 63.425781 10.644531 68.800781 15.277344 74.171875 19.90625 C 74.921875 20.554688 74.957031 21.25 74.242188 22.035156 C 72.84375 23.566406 71.425781 25.097656 69.992188 26.597656 C 69.3125 27.3125 68.75 27.957031 68.578125 29.046875 C 68.183594 31.667969 67.433594 34.207031 65.660156 36.386719 C 66.171875 36.792969 66.566406 37.21875 67.042969 37.507812 C 68.988281 38.71875 69.277344 40.519531 68.800781 42.511719 C 68.132812 45.304688 66.359375 47.09375 63.582031 47.824219 C 63.070312 47.960938 62.898438 48.183594 62.8125 48.742188 C 62.351562 51.875 61.089844 54.515625 58.019531 55.945312 C 57.746094 56.0625 57.558594 56.558594 57.523438 56.898438 C 57.386719 58.582031 57.011719 60.183594 55.886719 61.527344 C 54.914062 62.683594 53.652344 63.398438 52.136719 63.46875 C 51.402344 63.503906 51.179688 63.808594 51.007812 64.4375 C 50.257812 67.265625 47.136719 69.683594 44.21875 69.546875 C 43.265625 69.496094 42.207031 69.101562 41.421875 68.558594 C 38.335938 66.394531 35.351562 64.117188 32.316406 61.867188 C 32.246094 61.816406 32.179688 61.78125 32.023438 61.699219 C 31.425781 62.34375 30.847656 63.027344 30.214844 63.65625 C 28.441406 65.441406 25.628906 64.964844 24.535156 62.703125 C 24.023438 61.648438 24.042969 60.625 24.894531 59.671875 C 27.011719 57.273438 29.140625 54.890625 31.136719 52.402344 C 32.417969 50.820312 34.601562 51.007812 35.691406 51.839844 C 37.089844 52.898438 37.535156 54.992188 36.527344 56.453125 C 35.949219 57.304688 35.179688 58.019531 34.496094 58.804688 C 34.292969 59.042969 34.070312 59.28125 33.796875 59.585938 C 34.6875 60.285156 35.488281 60.964844 36.339844 61.597656 C 38.574219 63.214844 40.824219 64.796875 43.078125 66.414062 C 43.792969 66.925781 44.527344 66.992188 45.328125 66.667969 C 46.832031 66.089844 48.09375 65.253906 48.585938 63.585938 C 48.722656 63.09375 48.65625 62.738281 48.28125 62.429688 C 45.414062 60.113281 42.550781 57.816406 39.667969 55.519531 C 39.050781 55.042969 38.421875 54.617188 38.488281 53.695312 C 38.558594 52.914062 39.070312 52.4375 39.820312 52.660156 C 40.484375 52.847656 41.167969 53.152344 41.714844 53.578125 C 44.152344 55.519531 46.539062 57.511719 48.945312 59.484375 C 49.183594 59.671875 49.390625 59.875 49.628906 60.0625 C 51.46875 61.527344 53.960938 60.695312 54.574219 58.414062 C 54.625 58.207031 54.675781 57.988281 54.710938 57.78125 C 55 56.472656 54.8125 55.433594 53.585938 54.53125 C 50.871094 52.539062 48.28125 50.410156 45.671875 48.300781 C 45.296875 47.996094 44.867188 47.621094 44.75 47.195312 C 44.628906 46.769531 44.699219 46.089844 44.988281 45.796875 C 45.261719 45.527344 45.910156 45.527344 46.386719 45.542969 C 46.675781 45.558594 46.949219 45.851562 47.207031 46.054688 C 49.933594 48.234375 52.664062 50.429688 55.394531 52.609375 C 56.792969 53.730469 57.371094 53.679688 58.515625 52.285156 C 59.46875 51.125 60.167969 49.832031 60.1875 48.300781 C 60.1875 47.890625 59.964844 47.382812 59.65625 47.109375 C 57.269531 45.066406 54.847656 43.074219 52.457031 41.03125 C 51.980469 40.640625 51.554688 40.164062 51.214844 39.652344 C 50.871094 39.160156 50.957031 38.511719 51.453125 38.1875 C 51.828125 37.949219 52.457031 37.816406 52.867188 37.96875 C 53.464844 38.1875 53.976562 38.648438 54.472656 39.074219 C 56.65625 40.929688 58.839844 42.800781 60.96875 44.710938 C 61.753906 45.40625 62.539062 45.613281 63.410156 45.066406 C 64.144531 44.605469 64.925781 44.148438 65.457031 43.5 C 66.734375 41.96875 66.53125 40.539062 65.046875 39.246094 C 59.042969 33.984375 53.054688 28.722656 47.035156 23.515625 C 46.675781 23.210938 46.046875 23.023438 45.566406 23.089844 C 42.941406 23.429688 40.3125 23.804688 37.722656 24.265625 C 36.886719 24.417969 36.085938 24.84375 35.265625 25.167969 C 32.828125 26.152344 30.59375 25.710938 28.546875 24.214844 C 27.164062 23.210938 27.011719 21.863281 28.238281 20.65625 C 29.382812 19.53125 30.78125 18.664062 31.9375 17.558594 C 33.492188 16.078125 35.351562 15.53125 37.433594 15.378906 C 39.222656 15.242188 40.996094 14.917969 42.789062 14.679688 C 42.769531 14.628906 42.769531 14.542969 42.769531 14.441406 Z M 14.488281 10.152344 C 9.953125 16.195312 6.625 22.679688 3.367188 29.234375 C 5.398438 30.410156 7.292969 31.515625 9.253906 32.65625 C 12.289062 27.140625 15.273438 21.726562 18.242188 16.316406 C 18.550781 15.753906 19.179688 15.105469 19.078125 14.613281 C 18.976562 14.066406 18.207031 13.640625 17.714844 13.183594 C 16.722656 12.210938 15.683594 11.257812 14.488281 10.152344 Z M 71.460938 21.0625 C 70.878906 20.585938 70.367188 20.179688 69.890625 19.753906 C 67.777344 17.863281 65.695312 15.941406 63.527344 14.085938 C 61.566406 12.398438 59.519531 10.78125 57.507812 9.164062 C 57.320312 9.011719 56.824219 8.945312 56.722656 9.046875 C 55.359375 10.628906 54.027344 12.246094 52.648438 13.898438 C 57.472656 17.882812 62.25 21.832031 67.078125 25.8125 C 68.5625 24.230469 69.992188 22.679688 71.460938 21.0625 Z M 71.460938 21.0625"/></g><path d="M 28.359375 46.546875 C 30.148438 46.546875 31.617188 47.839844 31.648438 49.578125 C 31.667969 50.140625 31.445312 50.835938 31.085938 51.28125 C 28.5625 54.292969 25.988281 57.253906 23.429688 60.234375 C 21.960938 61.9375 20.152344 62.226562 18.617188 61.035156 C 16.996094 59.757812 16.722656 57.59375 18.125 55.894531 C 19.914062 53.730469 21.824219 51.671875 23.683594 49.5625 C 24.195312 48.980469 24.691406 48.402344 25.21875 47.859375 C 26.191406 46.871094 26.992188 46.546875 28.359375 46.546875 Z M 28.359375 46.546875"/><path d="M 15.597656 56.421875 C 12.820312 56.234375 11.179688 53.425781 12.578125 50.957031 C 13.382812 49.527344 14.507812 48.25 15.597656 47.007812 C 16.996094 45.40625 18.480469 43.875 19.949219 42.324219 C 20.921875 41.304688 22.796875 41.015625 24.042969 41.679688 C 25.320312 42.359375 26.089844 44.027344 25.695312 45.441406 C 25.59375 45.796875 25.390625 46.140625 25.132812 46.429688 C 22.421875 49.527344 19.710938 52.625 16.964844 55.6875 C 16.621094 56.046875 16.058594 56.183594 15.597656 56.421875 Z M 15.597656 56.421875"/></svg>