<svg xmlns="http://www.w3.org/2000/svg" width="75" viewBox="0 0 75 75" height="75" version="1.0"><path d="M 37.5 0 C 16.828125 0 0 16.828125 0 37.5 C 0 50.34375 6.46875 61.6875 16.40625 68.4375 C 22.40625 72.5625 29.671875 75 37.5 75 C 45.328125 75 52.59375 72.5625 58.59375 68.4375 C 68.53125 61.6875 75 50.34375 75 37.5 C 75 16.828125 58.171875 0 37.5 0 Z M 58.59375 62.523438 L 58.59375 53.90625 C 58.59375 47.34375 49.3125 42.1875 37.5 42.1875 C 25.6875 42.1875 16.40625 47.34375 16.40625 53.90625 L 16.40625 62.527344 C 9.03125 56.339844 4.6875 47.222656 4.6875 37.5 C 4.6875 19.40625 19.40625 4.6875 37.5 4.6875 C 55.59375 4.6875 70.3125 19.40625 70.3125 37.5 C 70.3125 47.21875 65.976562 56.324219 58.59375 62.523438 Z M 58.59375 62.523438"/><path d="M 49.21875 25.78125 C 49.21875 26.550781 49.144531 27.3125 48.992188 28.066406 C 48.84375 28.820312 48.621094 29.554688 48.328125 30.265625 C 48.03125 30.976562 47.671875 31.652344 47.242188 32.292969 C 46.816406 32.929688 46.332031 33.523438 45.785156 34.066406 C 45.242188 34.613281 44.648438 35.097656 44.011719 35.523438 C 43.371094 35.953125 42.695312 36.3125 41.984375 36.609375 C 41.273438 36.902344 40.539062 37.125 39.785156 37.273438 C 39.03125 37.425781 38.269531 37.5 37.5 37.5 C 36.730469 37.5 35.96875 37.425781 35.214844 37.273438 C 34.460938 37.125 33.726562 36.902344 33.015625 36.609375 C 32.304688 36.3125 31.628906 35.953125 30.988281 35.523438 C 30.351562 35.097656 29.757812 34.613281 29.214844 34.066406 C 28.667969 33.523438 28.183594 32.929688 27.757812 32.292969 C 27.328125 31.652344 26.96875 30.976562 26.671875 30.265625 C 26.378906 29.554688 26.15625 28.820312 26.007812 28.066406 C 25.855469 27.3125 25.78125 26.550781 25.78125 25.78125 C 25.78125 25.011719 25.855469 24.25 26.007812 23.496094 C 26.15625 22.742188 26.378906 22.007812 26.671875 21.296875 C 26.96875 20.585938 27.328125 19.910156 27.757812 19.269531 C 28.183594 18.632812 28.667969 18.039062 29.214844 17.496094 C 29.757812 16.949219 30.351562 16.464844 30.988281 16.039062 C 31.628906 15.609375 32.304688 15.25 33.015625 14.953125 C 33.726562 14.660156 34.460938 14.4375 35.214844 14.289062 C 35.96875 14.136719 36.730469 14.0625 37.5 14.0625 C 38.269531 14.0625 39.03125 14.136719 39.785156 14.289062 C 40.539062 14.4375 41.273438 14.660156 41.984375 14.953125 C 42.695312 15.25 43.371094 15.609375 44.011719 16.039062 C 44.648438 16.464844 45.242188 16.949219 45.785156 17.496094 C 46.332031 18.039062 46.816406 18.632812 47.242188 19.269531 C 47.671875 19.910156 48.03125 20.585938 48.328125 21.296875 C 48.621094 22.007812 48.84375 22.742188 48.992188 23.496094 C 49.144531 24.25 49.21875 25.011719 49.21875 25.78125 Z M 49.21875 25.78125"/></svg>