<?xml version="1.0" encoding="utf-8"?>
<!-- Generator: Adobe Illustrator 25.4.1, SVG Export Plug-In . SVG Version: 6.00 Build 0)  -->
<svg version="1.1" id="Layer_1" focusable="false" xmlns="http://www.w3.org/2000/svg" xmlns:xlink="http://www.w3.org/1999/xlink"
	 x="0px" y="0px" viewBox="0 0 512 512" style="enable-background:new 0 0 512 512;" xml:space="preserve">
<style type="text/css">
	.st0{fill:none;}
</style>
<path class="st0" d="M184.6,261.9c3.2,14-12.1,24.6-24.1,17.2l-40.7-25.5L68.9,335C55.6,356.3,71,384,96,384h52c6.6,0,12,5.4,12,12
	v40c0,6.6-5.4,12-12,12H96.1c-75.3,0-121.3-83-81.4-146.9l50.8-81.4l-40.7-25.4c-12.1-7.5-9-26,4.9-29.2l110.2-25.4
	c8.6-2,17.2,3.4,19.2,12L184.6,261.9L184.6,261.9z M283.1,79l41.3,66.1l-40.7,25.5c-12.1,7.5-9,26,4.9,29.2l110.2,25.4
	c8.7,2,17.2-3.4,19.2-12l25.5-110.2c3.2-13.8-12-24.7-24.1-17.2l-40.7,25.4l-41.3-66.1c-37.5-60-125.2-60.2-162.8,0l-18,28.8
	c-3.5,5.6-1.8,13,3.8,16.5l33.9,21.2c5.6,3.5,13,1.8,16.5-3.8l18-28.7C241.6,58.7,270.8,59.3,283.1,79L283.1,79z M497.3,301.1
	l-27.5-44.1c-3.5-5.6-10.9-7.3-16.5-3.8l-33.9,21.2c-5.6,3.5-7.3,10.9-3.8,16.5l27.6,44.1c13.3,21.2-2.1,49-27.1,49h-96v-48
	c0-14.2-17.2-21.4-27.3-11.3l-80,80c-6.2,6.2-6.2,16.4,0,22.6l80,80c10,10,27.3,3,27.3-11.3v-48h95.9
	C491.2,448,537.2,365,497.3,301.1z"/>
</svg>
