<svg xmlns="http://www.w3.org/2000/svg" width="75" viewBox="0 0 75 75" height="75" version="1.0"><defs><clipPath id="a"><path d="M 7.5 0 L 66 0 L 66 75 L 7.5 75 Z M 7.5 0"/></clipPath></defs><path d="M 27.390625 59.816406 C 27.445312 60.398438 27.972656 60.867188 28.554688 60.867188 C 28.613281 60.867188 28.613281 60.867188 28.671875 60.867188 C 29.3125 60.808594 29.78125 60.226562 29.722656 59.582031 L 27.390625 32.710938 C 27.332031 32.066406 26.746094 31.601562 26.105469 31.65625 C 25.464844 31.714844 24.996094 32.300781 25.054688 32.941406 Z M 27.390625 59.816406"/><path d="M 44.886719 60.867188 C 44.945312 60.867188 44.945312 60.867188 45.003906 60.867188 C 45.585938 60.867188 46.109375 60.398438 46.167969 59.816406 L 48.503906 32.941406 C 48.5625 32.300781 48.09375 31.714844 47.453125 31.65625 C 46.8125 31.601562 46.226562 32.066406 46.167969 32.710938 L 43.835938 59.582031 C 43.777344 60.226562 44.246094 60.808594 44.886719 60.867188 Z M 44.886719 60.867188"/><path d="M 36.777344 60.867188 C 37.421875 60.867188 37.945312 60.339844 37.945312 59.699219 L 37.945312 19.390625 C 37.945312 18.746094 37.421875 18.222656 36.777344 18.222656 C 36.136719 18.222656 35.613281 18.746094 35.613281 19.390625 L 35.613281 59.699219 C 35.613281 60.339844 36.136719 60.867188 36.777344 60.867188 Z M 36.777344 60.867188"/><path d="M 51.476562 67.878906 C 51.476562 68.03125 51.449219 68.179688 51.386719 68.324219 C 51.328125 68.46875 51.246094 68.59375 51.136719 68.703125 C 51.027344 68.8125 50.898438 68.898438 50.757812 68.957031 C 50.613281 69.015625 50.464844 69.046875 50.3125 69.046875 C 50.15625 69.046875 50.007812 69.015625 49.863281 68.957031 C 49.722656 68.898438 49.59375 68.8125 49.484375 68.703125 C 49.375 68.59375 49.292969 68.46875 49.234375 68.324219 C 49.171875 68.179688 49.144531 68.03125 49.144531 67.878906 C 49.144531 67.722656 49.171875 67.574219 49.234375 67.429688 C 49.292969 67.289062 49.375 67.160156 49.484375 67.050781 C 49.59375 66.941406 49.722656 66.859375 49.863281 66.796875 C 50.007812 66.738281 50.15625 66.710938 50.3125 66.710938 C 50.464844 66.710938 50.613281 66.738281 50.757812 66.796875 C 50.898438 66.859375 51.027344 66.941406 51.136719 67.050781 C 51.246094 67.160156 51.328125 67.289062 51.386719 67.429688 C 51.449219 67.574219 51.476562 67.722656 51.476562 67.878906 Z M 51.476562 67.878906"/><g clip-path="url(#a)"><path d="M 65.476562 16.058594 C 65.066406 15.59375 64.484375 15.300781 63.785156 15.300781 L 61.160156 15.300781 L 61.335938 12.964844 L 62.617188 12.964844 C 63.898438 12.964844 64.949219 11.914062 64.949219 10.628906 L 64.949219 7.121094 C 64.949219 5.835938 63.898438 4.785156 62.617188 4.785156 L 44.417969 4.785156 L 44.417969 1.28125 C 44.417969 0.636719 43.894531 0.113281 43.253906 0.113281 L 30.304688 0.113281 C 29.664062 0.113281 29.136719 0.636719 29.136719 1.28125 L 29.136719 4.785156 L 10.941406 4.785156 C 9.65625 4.785156 8.609375 5.835938 8.609375 7.121094 L 8.609375 10.628906 C 8.609375 11.914062 9.65625 12.964844 10.941406 12.964844 L 12.222656 12.964844 L 12.398438 15.300781 L 9.773438 15.300781 C 9.132812 15.300781 8.492188 15.59375 8.082031 16.058594 C 7.675781 16.527344 7.5 17.171875 7.617188 17.8125 L 8.082031 20.148438 C 8.199219 20.734375 8.667969 21.085938 9.25 21.085938 C 9.308594 21.085938 9.425781 21.085938 9.484375 21.085938 C 10.125 20.96875 10.53125 20.324219 10.417969 19.742188 L 10.007812 17.636719 L 12.574219 17.636719 L 16.65625 71.441406 C 16.773438 73.308594 18.40625 74.886719 20.332031 74.886719 L 52.703125 74.886719 C 54.625 74.886719 56.257812 73.367188 56.375 71.5 L 60.984375 17.636719 L 63.609375 17.636719 L 63.199219 19.742188 C 63.082031 20.382812 63.492188 20.96875 64.132812 21.085938 C 64.191406 21.085938 64.308594 21.085938 64.367188 21.085938 C 64.890625 21.085938 65.417969 20.675781 65.535156 20.148438 L 66 17.8125 C 66 17.171875 65.882812 16.527344 65.476562 16.058594 Z M 31.472656 2.449219 L 42.027344 2.449219 L 42.027344 4.785156 L 31.472656 4.785156 Z M 10.941406 10.628906 L 10.941406 7.121094 L 62.617188 7.121094 L 62.617188 10.628906 Z M 53.984375 71.324219 C 53.925781 72.023438 53.34375 72.550781 52.644531 72.550781 L 20.332031 72.550781 C 19.632812 72.550781 19.046875 71.96875 19.046875 71.324219 L 18.875 69.046875 L 45.644531 69.046875 C 46.285156 69.046875 46.8125 68.519531 46.8125 67.878906 C 46.8125 67.234375 46.285156 66.710938 45.644531 66.710938 L 18.640625 66.710938 L 14.558594 12.964844 L 59 12.964844 Z M 53.984375 71.324219"/></g></svg>