<?xml version="1.0" encoding="utf-8"?>
<!-- Generator: Adobe Illustrator 25.4.1, SVG Export Plug-In . SVG Version: 6.00 Build 0)  -->
<svg version="1.1" id="Layer_1" focusable="false" xmlns="http://www.w3.org/2000/svg" xmlns:xlink="http://www.w3.org/1999/xlink"
	 x="0px" y="0px" viewBox="0 0 640 512" style="enable-background:new 0 0 640 512;" xml:space="preserve">
<style type="text/css">
	.st0{fill:#90EE90;}
</style>
<path class="st0" d="M624,288h-16v-64c0-17.7-14.3-32-32-32h-48L419.2,56c-12.1-15.2-30.5-24-50-24H256c-17.7,0-32,14.3-32,32v128
	H64c-17.7,0-32,14.3-32,32v64H16c-8.8,0-16,7.2-16,16v32c0,8.8,7.2,16,16,16h49.6c-0.8,5.3-1.6,10.5-1.6,16c0,61.9,50.1,112,112,112
	s112-50.1,112-112c0-5.5-0.9-10.7-1.6-16h67.2c-0.8,5.3-1.6,10.5-1.6,16c0,61.9,50.1,112,112,112s112-50.1,112-112
	c0-5.5-0.8-10.7-1.6-16H624c8.8,0,16-7.2,16-16v-32C640,295.2,632.8,288,624,288z M288,96h81.2l76.8,96H288V96z M176,416
	c-26.5,0-48-21.5-48-48s21.5-48,48-48s48,21.5,48,48S202.5,416,176,416z M464,416c-26.5,0-48-21.5-48-48s21.5-48,48-48
	s48,21.5,48,48S490.5,416,464,416z"/>
</svg>
